<svg class="animated" id="freepik_stories-cat-rising-from-a-pumpkin" xmlns="http://www.w3.org/2000/svg" viewBox="0 0 500 500" version="1.1" xmlns:xlink="http://www.w3.org/1999/xlink" xmlns:svgjs="http://svgjs.com/svgjs"><style>svg#freepik_stories-cat-rising-from-a-pumpkin:not(.animated) .animable {opacity: 0;}svg#freepik_stories-cat-rising-from-a-pumpkin.animated #freepik--Moon--inject-7 {animation: 6s Infinite  linear spin;animation-delay: 0s;}svg#freepik_stories-cat-rising-from-a-pumpkin.animated #freepik--Bats--inject-7 {animation: 6s Infinite  linear shake;animation-delay: 0s;}         @keyframes spin {             from {                 transform: rotate(0);               }               to {                 transform: rotate(360deg);               }         }                 @keyframes shake {                10%, 90% {                    transform: translate3d(-1px, 0, 0);                  }                  20%, 80% {                    transform: translate3d(2px, 0, 0);                  }                  30%, 50%, 70% {                    transform: translate3d(-4px, 0, 0);                  }                  40%, 60% {                    transform: translate3d(4px, 0, 0);                  }            }        </style><g id="freepik--Moon--inject-7" class="animable" style="transform-origin: 376.84px 74.51px;"><circle cx="376.84" cy="74.51" r="39.75" style="fill: rgb(196, 154, 193); transform-origin: 376.84px 74.51px;" id="el482asn2njb5" class="animable"></circle><g id="elie39oqz48is"><circle cx="376.84" cy="74.51" r="39.75" style="fill: rgb(255, 255, 255); opacity: 0.6; transform-origin: 376.84px 74.51px;" class="animable"></circle></g><g id="elat833puowhk"><g style="opacity: 0.1; transform-origin: 377.67px 80.1543px;" class="animable"><path d="M356.35,92.29a3.49,3.49,0,0,1,1.13,2.55,3.91,3.91,0,0,1-1.12,2.81,3.48,3.48,0,0,1-2.91,1,4.12,4.12,0,0,1-2.5-1.19,13.43,13.43,0,0,0,2.47-.17,3.06,3.06,0,0,0,1.7-.85,4,4,0,0,0,1-1.73A7.28,7.28,0,0,0,356.35,92.29Z" style="fill: rgb(38, 50, 56); transform-origin: 354.215px 95.484px;" id="el3qk6gghkbfz" class="animable"></path><path d="M351.42,96.15a2.28,2.28,0,0,1-1-1.76,2.68,2.68,0,0,1,.78-2.09,2.47,2.47,0,0,1,2.17-.7,2.57,2.57,0,0,1,1.71,1,13.69,13.69,0,0,0-1.68.34,2.08,2.08,0,0,0-1,.55,3.22,3.22,0,0,0-.66,1A6,6,0,0,0,351.42,96.15Z" style="fill: rgb(38, 50, 56); transform-origin: 352.747px 93.8577px;" id="elo64s3gbea9" class="animable"></path><path d="M404.91,54.87a3.52,3.52,0,0,1-.85,2.66,3.85,3.85,0,0,1-2.7,1.35,3.44,3.44,0,0,1-2.84-1.19,4.12,4.12,0,0,1-1.08-2.55,13.28,13.28,0,0,0,2,1.51,3.06,3.06,0,0,0,1.84.5,4,4,0,0,0,1.9-.62A7.35,7.35,0,0,0,404.91,54.87Z" style="fill: rgb(38, 50, 56); transform-origin: 401.184px 56.8789px;" id="elj0dxtwhjwje" class="animable"></path><path d="M398.67,54.48a2.24,2.24,0,0,1,.43-2,2.67,2.67,0,0,1,2-1,2.46,2.46,0,0,1,2.09.92,2.58,2.58,0,0,1,.59,1.9,14.56,14.56,0,0,0-1.48-.87,2.12,2.12,0,0,0-1.09-.22,2.92,2.92,0,0,0-1.16.31A5.79,5.79,0,0,0,398.67,54.48Z" style="fill: rgb(38, 50, 56); transform-origin: 401.192px 52.9772px;" id="elc0si4ab0tiq" class="animable"></path><path d="M394.83,72.17a7.94,7.94,0,0,1,4.53,5.61A8.77,8.77,0,1,0,384,82a8,8,0,0,1,10.8-9.86Z" style="fill: rgb(38, 50, 56); transform-origin: 390.707px 74.7899px;" id="elnocflc8yj6k" class="animable"></path><path d="M402.86,77.79a11.35,11.35,0,0,1-1.94,6.57A13.43,13.43,0,0,1,395.63,89a9.67,9.67,0,0,1-7.08.65A10.4,10.4,0,0,1,383,85.56a14,14,0,0,0,5.85,2.75,11.49,11.49,0,0,0,1.54.16,8.69,8.69,0,0,0,1.53-.12,9.63,9.63,0,0,0,2.93-.93c.46-.23.93-.48,1.38-.75s.89-.57,1.3-.91a14,14,0,0,0,2.28-2.2A15.87,15.87,0,0,0,402.86,77.79Z" style="fill: rgb(38, 50, 56); transform-origin: 392.931px 83.9149px;" id="el8kam70gj2nl" class="animable"></path><path d="M357.63,52.94a3,3,0,0,1,2.06,1.73,3.27,3.27,0,1,0-5.31,2.65,2.91,2.91,0,0,1-.31-2.14A3,3,0,0,1,357.63,52.94Z" style="fill: rgb(38, 50, 56); transform-origin: 356.421px 54.4077px;" id="elkphw4c0bpss" class="animable"></path><path d="M361,54.43a4.09,4.09,0,0,1-.16,2.58,5,5,0,0,1-1.62,2.12,3.69,3.69,0,0,1-2.62.74,3.75,3.75,0,0,1-2.31-1.18,5.55,5.55,0,0,0,2.34.5,3.58,3.58,0,0,0,2.06-.75A6,6,0,0,0,361,54.43Z" style="fill: rgb(38, 50, 56); transform-origin: 357.714px 57.1597px;" id="elglm74fowxm5" class="animable"></path><path d="M370.41,99a4.23,4.23,0,0,1,3.3,1.92,4.65,4.65,0,1,0-6.78,5A4.24,4.24,0,0,1,370.41,99Z" style="fill: rgb(38, 50, 56); transform-origin: 369.105px 101.552px;" id="elom4ij6dzd8g" class="animable"></path><path d="M375.45,100.27a6.19,6.19,0,0,1,.26,3.62,7.07,7.07,0,0,1-1.74,3.28,5.15,5.15,0,0,1-3.37,1.65,5.52,5.52,0,0,1-3.5-.94,7.17,7.17,0,0,0,3.42.27,4.94,4.94,0,0,0,2.81-1.58,7.76,7.76,0,0,0,1.73-2.86A8.42,8.42,0,0,0,375.45,100.27Z" style="fill: rgb(38, 50, 56); transform-origin: 371.484px 104.552px;" id="elw4v59qvawm" class="animable"></path></g></g></g><g id="freepik--Shadow--inject-7" class="animable" style="transform-origin: 250px 433.51px;"><ellipse cx="250" cy="433.51" rx="177.55" ry="41.41" style="fill: rgb(235, 235, 235); transform-origin: 250px 433.51px;" id="el3w12cisre2p" class="animable"></ellipse></g><g id="freepik--Floor--inject-7" class="animable" style="transform-origin: 250px 381.84px;"><polygon points="27.88 381.84 83.41 381.59 138.94 381.51 250 381.34 361.06 381.5 416.59 381.59 472.12 381.84 416.59 382.08 361.06 382.17 250 382.34 138.94 382.17 83.41 382.08 27.88 381.84" style="fill: rgb(38, 50, 56); transform-origin: 250px 381.84px;" id="el2kh4k5mcx3o" class="animable"></polygon></g><g id="freepik--Cat--inject-7" class="animable" style="transform-origin: 250.016px 249.023px;"><path d="M394.57,336.42c-.52,10.44-15.69,70.75-23.67,77.39s-22.4,9.7-22.4,9.7S332,440.73,324,442.69s-28.18,3.24-28.18,3.24S272.06,459.87,244,459.72s-50.08-13.35-50.08-13.35-23-3.26-27.33-5.64-18.09-13.14-18.09-13.14-10.14-.26-14.72-3.41-19.29-16.2-21.32-25.71-9.31-71.3-6.27-88.37,47.11-66.93,54.36-72.16c4.66-3.35,12.45-6.2,21.64-8.53l6.9,15.36-3.34-16.23c1.47-.34,3-.67,4.49-1l9.11,22.49,2.3-24.62c20.57-3.41,42.06-4.87,50.32-4.57,7.89.28,26,2.54,43.17,5.44l3.06,11.36,5-9.95c2.43.46,4.81.91,7.09,1.39v19.42l9.61-17.29a64.39,64.39,0,0,1,11.36,3.58C342.94,240.46,395.08,326,394.57,336.42Z" style="fill: rgb(196, 154, 193); transform-origin: 250.016px 340.261px;" id="elkzdnvrelhtq" class="animable"></path><g id="elmpxy8och6"><g style="opacity: 0.2; transform-origin: 254.531px 346.417px;" class="animable"><path d="M371.43,350.33a70.45,70.45,0,0,1-1.82,14.83c-1.05,4.81-2.43,9.61-3.87,14.51s-2.94,9.69-4.54,14.54c-1.7,5.09-3.38,9.72-5.14,14.12l-.92,2.33c-1.54,3.86-3.12,7.86-4.93,11.68a.67.67,0,0,1-.61.38.85.85,0,0,1-.26-.05.67.67,0,0,1-.4-.83c.23-.74.49-1.47.75-2.19l.48-1.37c3.53-10.36,6.58-19.61,9.32-28.3,1.6-5.06,3-9.74,4.31-14.29,1.23-4.3,2.62-9.31,3.54-14.32a58.69,58.69,0,0,0,1-14.45,63.32,63.32,0,0,0-2.57-13.76,203.79,203.79,0,0,0-9-23.31c-.55-1.25-1.09-2.5-1.63-3.76L354,303.43c-3.58-8.32-7.29-16.93-11.25-25.24a.64.64,0,0,1,.3-.87.62.62,0,0,1,.83.29l.49,1,1.2,2.43c4.19,8.31,9,18,13.51,27.64,4,8.64,8.18,17.58,10.53,27.23A59.67,59.67,0,0,1,371.43,350.33Z" id="el2blitpzm31v" class="animable" style="transform-origin: 357.055px 349.989px;"></path><path d="M168.19,267.94c-.69,1.15-1.38,2.31-2.05,3.48-5.86,10.09-11.06,19.42-15.91,28.54l-.91,1.7A94.38,94.38,0,0,0,143.45,314c-1.73,4.83-2.24,9.74-2.46,15.63-.41,10.73-.33,21.63.23,32.39.53,10.19,1.52,20.69,3,32.11.64,4.83,1.41,9.92,2.42,16,.48,2.9,1,5.84,1.59,8.68.47,2.45,1,5,1.39,7.47a.74.74,0,0,1-.58.86.55.55,0,0,1-.18,0,.71.71,0,0,1-.69-.52c-.35-1.17-.69-2.41-1.08-3.89-1.48-5.61-2.62-11.25-3.55-16-1.09-5.65-2-10.92-2.69-16.11-1.43-10.36-2.39-21.36-2.85-32.69a291.2,291.2,0,0,1,.2-32.79,47.65,47.65,0,0,1,1.17-8.1,42.65,42.65,0,0,1,2.67-7.37c2.19-4.82,4.85-9.5,7.61-14.27,5.33-9.22,11-18.44,17.35-28.19a.68.68,0,0,1,.57-.31.72.72,0,0,1,.37.11A.65.65,0,0,1,168.19,267.94Z" id="el7d549px41jn" class="animable" style="transform-origin: 152.963px 347.024px;"></path><path d="M320,339.9a118.69,118.69,0,0,1,.46,35.66,180.54,180.54,0,0,1-8.62,34.55c-1.82,5.24-3.93,10.76-6.45,16.89-2.18,5.29-4.54,10.91-7.36,16.31a.65.65,0,0,1-.59.35.66.66,0,0,1-.66-.86c.49-1.54,1-2.89,1.44-4.13.54-1.43,1.07-2.87,1.6-4.31s1-2.71,1.51-4.05q1.59-4.2,3.15-8.4c2.39-6.4,4.26-11.73,5.88-16.77A167.6,167.6,0,0,0,318,370.78a114.28,114.28,0,0,0,.5-17.35,131,131,0,0,0-2.35-17.92c-2.09-10.92-4.51-22.42-7.63-36.2-2.48-11-5.41-22.72-9-35.92l-.12-.47.51-.2a.53.53,0,0,1,.67.36c.46,1.45.92,2.9,1.37,4.35,3.59,11.57,7,23.69,10,36C315.42,316.94,318.06,328.3,320,339.9Z" id="el2dljd1fccbe" class="animable" style="transform-origin: 309.168px 353.178px;"></path><path d="M192,434.79c.7,3.53,1.43,7.19,1.82,10.83a.61.61,0,0,1-.47.67h-.14a.62.62,0,0,1-.6-.42c-.45-1.3-.82-2.48-1.12-3.61-1.09-4.13-2-8.38-2.86-12.5l-.42-2c-.9-4.21-1.77-8.85-2.76-14.59-1.63-9.43-3-19.37-4.13-29.54-1.21-11.09-2.08-20.41-2.37-29.82a93.61,93.61,0,0,1,.6-14.93,103.33,103.33,0,0,1,2.92-14.16,234.9,234.9,0,0,1,9.63-26.91.77.77,0,0,1,1-.41.78.78,0,0,1,.49,1l-.37,1.06c-.27.78-.54,1.57-.82,2.35-3.09,8.71-6.27,17.72-8.3,27.05a107.85,107.85,0,0,0-2,29c.49,8.91,1.32,18.29,2.63,29.5,1.14,9.78,2.51,19.63,4.09,29.29l.3,1.88c.69,4.19,1.39,8.53,2.2,12.77C191.52,432.46,191.75,433.62,192,434.79Z" id="el2ssms16fikt" class="animable" style="transform-origin: 186.35px 371.816px;"></path><path d="M326.46,246.56c-5.2,1.84-10.47,3.53-15.75,5.14s-10.57,3.25-15.95,4.57a212.36,212.36,0,0,1-32.59,5.35,218.08,218.08,0,0,1-33,.3,213.84,213.84,0,0,1-32.83-4.78c-5.39-1.22-10.77-2.52-16.09-4s-10.52-3.33-15.75-5.08c-1.27-.43-2.53-.88-3.78-1.37-.13-.05-.22.17-.09.23,5,2.3,10.06,4.53,15.27,6.42s10.59,3.6,16,5a206,206,0,0,0,33,5.48,217.38,217.38,0,0,0,66.45-4.45q8.16-1.85,16.17-4.32a137.26,137.26,0,0,0,15.56-6.06c1.24-.56,2.44-1.21,3.66-1.82C327,247,326.79,246.44,326.46,246.56Z" id="elpbaum92sbah" class="animable" style="transform-origin: 243.712px 255.592px;"></path></g></g><g id="eljbvqtray02e"><path d="M192.43,289.91a14.49,14.49,0,0,0-16,12.73c-.6,5.26,1.36,15.9,12.79,16.94,10.52,1,15.45-6.26,16-14.22C205.69,298.23,199.86,290.56,192.43,289.91Z" style="opacity: 0.3; transform-origin: 190.79px 304.747px;" class="animable"></path></g><g id="el1a17burkiyb"><path d="M274.21,300.62c-3.65,9.51,1.8,16.93,7,19.35,5.46,2.54,16,2.4,20.21-8.29,3.46-8.85-1.19-16.78-8.68-19.5A14.94,14.94,0,0,0,274.21,300.62Z" style="opacity: 0.3; transform-origin: 287.803px 306.369px;" class="animable"></path></g><g id="elzij6yrp3lkc"><path d="M225.55,332.24c-.37-.29,14.28-36,14.93-36.23.12,0,3.4,0,3.4,0,2.31,8.63,5.12,34.95,4.91,35.59S227,333.41,225.55,332.24Z" style="opacity: 0.3; transform-origin: 237.172px 314.374px;" class="animable"></path></g><g id="elw1q1uj95sdd"><path d="M311,372.67c-7.12,6.23-14.08,11.77-22.9,15.38-.63.25-2.84-.07-3.4,0L282,371.2,257.11,378l6.49,16.2a126.85,126.85,0,0,1-24.31,2.57c-19.28,0-44.28-6-68.14-25-27-21.53-39.49-54.25-31.67-60.93,5.81-5,13.74.59,30.15,13.59a98.45,98.45,0,0,0,16.19,10.28l-9.45,14.76L196.84,360l7.58-17.85c.71.23,2.69-.2,3.4,0,1.16.35,1.06,1.32,2.24,1.62l-3.47,15.7,16.61,2.86.72-15.81c.87.12,2.52-.1,3.4,0a98.94,98.94,0,0,0,12,1.07c16,0,42.7-3.14,56.29-9.5,19.47-9.13,38-29.11,44.47-18.16S331.65,354.61,311,372.67Z" style="opacity: 0.3; transform-origin: 239.393px 352.898px;" class="animable"></path></g><path d="M195.83,289.91a14.49,14.49,0,0,0-16,12.73c-.6,5.26,1.36,15.9,12.79,16.94,10.52,1,15.45-6.26,16-14.22C209.09,298.23,203.26,290.56,195.83,289.91Z" style="fill: rgb(38, 50, 56); transform-origin: 194.19px 304.747px;" id="elxmnq1ivv4pa" class="animable"></path><path d="M277.61,300.62c-3.65,9.51,1.8,16.93,7,19.35,5.46,2.54,16,2.4,20.21-8.29,3.46-8.85-1.19-16.78-8.68-19.5A14.94,14.94,0,0,0,277.61,300.62Z" style="fill: rgb(38, 50, 56); transform-origin: 291.203px 306.369px;" id="elwcgnb7c3oa" class="animable"></path><path d="M229,332.24c-.37-.29,14.28-36,14.93-36.23s8.57,34.81,8.31,35.59S230.37,333.41,229,332.24Z" style="fill: rgb(38, 50, 56); transform-origin: 240.62px 314.388px;" id="el2xufjgc5smd" class="animable"></path><path d="M314.44,372.67a88.31,88.31,0,0,1-26.3,15.38l-2.7-16.85L260.51,378l6.49,16.2a126.85,126.85,0,0,1-24.31,2.57c-19.28,0-44.28-6-68.14-25-27-21.53-39.49-54.25-31.67-60.93,5.81-5,13.74.59,30.15,13.59a98.45,98.45,0,0,0,16.19,10.28l-9.45,14.76L200.24,360l7.58-17.85c1.86.59,3.73,1.13,5.64,1.62L210,359.51l16.61,2.86.72-15.81a111.78,111.78,0,0,0,15.37,1.07c16,0,42.7-3.14,56.29-9.5C318.45,329,337,309,343.45,320S335.05,354.61,314.44,372.67Z" style="fill: rgb(38, 50, 56); transform-origin: 242.776px 352.898px;" id="elfhl0rbchuy" class="animable"></path><path d="M166,130.19c-4.4.24-4.69-72.32,12-91.75,2.39-2.78,42,46.08,42.56,47.75S175.07,129.69,166,130.19Z" style="fill: rgb(38, 50, 56); transform-origin: 192.004px 84.2582px;" id="elv8crfguk1sd" class="animable"></path><path d="M167.32,129.86c-3.76.2-4-61.71,10.22-78.29,2-2.38,35.84,39.31,36.32,40.74S175.08,129.43,167.32,129.86Z" style="fill: rgb(55, 71, 79); transform-origin: 189.499px 90.6662px;" id="elfbvk9lp6d24" class="animable"></path><path d="M180.6,125.1a55.38,55.38,0,0,0-1-5.9,51.26,51.26,0,0,0-1.54-5.75A41.61,41.61,0,0,0,173,102.82a27.72,27.72,0,0,0-8.32-8.21,26.94,26.94,0,0,0-2.56-1.47c-.9-.38-1.79-.83-2.73-1.13a33.94,33.94,0,0,0-5.76-1.54,26.28,26.28,0,0,1,11.48,3.44A23.66,23.66,0,0,1,170,97.58a29.91,29.91,0,0,1,3.92,4.64,39.72,39.72,0,0,1,5,11A45.14,45.14,0,0,1,180.6,125.1Z" style="fill: rgb(69, 90, 100); transform-origin: 167.115px 107.785px;" id="el7tgxjbjhj5t" class="animable"></path><path d="M183.37,123.8a63.26,63.26,0,0,0-.12-8.6,71.1,71.1,0,0,0-1.12-8.5,61.18,61.18,0,0,0-5.39-16.17,51.48,51.48,0,0,0-4.39-7.31,54.34,54.34,0,0,0-5.58-6.45,49.16,49.16,0,0,0-6.59-5.45,63.66,63.66,0,0,0-7.37-4.43,50,50,0,0,1,14.52,9.29,46.87,46.87,0,0,1,5.8,6.47,53.48,53.48,0,0,1,4.56,7.4,59,59,0,0,1,5.24,16.51A60.77,60.77,0,0,1,183.37,123.8Z" style="fill: rgb(69, 90, 100); transform-origin: 168.297px 95.345px;" id="elrgugce9mjij" class="animable"></path><path d="M204.08,203.89c.11-1.39-39.33-25.64-50-57-1.62-4.78,34.77-54.93,52.41-64.1,8.9-4.64,69.28,2.76,72.13,4.47s40,57.45,39.78,71.11c-.11,5.85-21.66,30.75-44.17,42.68-2.36,1.25,6.57,13.79,11.81,19.64s23.42,18.35,28.42,30.26c0,0-33.56,11.57-62.22,12.8S204,259.26,204,259.26A410.21,410.21,0,0,1,204.08,203.89Z" style="fill: rgb(38, 50, 56); transform-origin: 236.214px 172.603px;" id="elmqtdcpp3hr" class="animable"></path><path d="M191.73,120.8C182.25,119.27,176,128,174.18,139c-1.44,8.95,2.72,19,11.82,20.46s16.45-8.38,17.8-16.79S202,122.45,191.73,120.8Z" style="fill: rgb(38, 50, 56); transform-origin: 188.998px 140.115px;" id="el1ec19bd9hao" class="animable"></path><path d="M192.27,123.26c-8.91-1.43-14.82,6.74-16.49,17.14-1.36,8.42,2.55,17.86,11.1,19.23s15.47-7.87,16.74-15.78S201.94,124.81,192.27,123.26Z" style="fill: rgb(196, 154, 193); transform-origin: 189.707px 141.432px;" id="el8cnd6k7g6d" class="animable"></path><path d="M191.73,127.22c-7-1.12-11.6,5.28-12.91,13.41-1.06,6.59,2,14,8.7,15.06s12.1-6.16,13.09-12.35S199.3,128.44,191.73,127.22Z" style="fill: rgb(38, 50, 56); transform-origin: 189.721px 141.443px;" id="el8l4qvn2xbad" class="animable"></path><path d="M194.94,127.88c-3.17-.51-5.27,2.4-5.87,6.09-.48,3,.91,6.35,4,6.84s5.5-2.8,5.95-5.61S198.38,128.44,194.94,127.88Z" style="fill: rgb(255, 255, 255); transform-origin: 194.047px 134.34px;" id="elh57iow2n5x6" class="animable"></path><path d="M260.79,129.61c12.38-1.64,19.87,7,21.34,18.14,1.19,9-4.95,19.15-16.83,20.72s-20.66-8.24-21.78-16.68S247.34,131.39,260.79,129.61Z" style="fill: rgb(38, 50, 56); transform-origin: 262.821px 149.023px;" id="el00ytv8v3ewztp" class="animable"></path><path d="M259.9,132.1c11.64-1.54,18.68,6.61,20.06,17.05,1.12,8.45-4.64,18-15.81,19.48s-19.43-7.75-20.48-15.69S247.27,133.77,259.9,132.1Z" style="fill: rgb(196, 154, 193); transform-origin: 261.812px 150.35px;" id="elyotajdwrimp" class="animable"></path><path d="M260.3,136.07c9.11-1.2,14.62,5.18,15.7,13.35.88,6.62-3.63,14.09-12.38,15.25s-15.2-6.07-16-12.28A14.49,14.49,0,0,1,260.3,136.07Z" style="fill: rgb(38, 50, 56); transform-origin: 261.8px 150.359px;" id="elzzkt6v3lfaj" class="animable"></path><path d="M266.18,136.26c4.13-.55,6.64,2.35,7.13,6.06a6.27,6.27,0,0,1-5.62,6.93,6.68,6.68,0,0,1-7.28-5.58A6.58,6.58,0,0,1,266.18,136.26Z" style="fill: rgb(255, 255, 255); transform-origin: 266.85px 142.739px;" id="eltju8ezhzjeq" class="animable"></path><path d="M225.21,148.86c-.21,1.18-7.58,5.21-8.4,5.17s-7.86-4.83-8-6,6.55-1.28,8.25-1.2S225.42,147.69,225.21,148.86Z" style="fill: rgb(69, 90, 100); transform-origin: 217.011px 150.42px;" id="elchb728hhrg8" class="animable"></path><path d="M203.07,156.18a58.08,58.08,0,0,0,3.41,5.06,12.69,12.69,0,0,0,2,2.12,1.27,1.27,0,0,0,1.91.07,7.28,7.28,0,0,0,1.74-2.06,19.93,19.93,0,0,0,1.35-2.6,44.52,44.52,0,0,0,2.05-5.59l1-3.5,1,3.5a44.3,44.3,0,0,0,2.62,6.79A19.25,19.25,0,0,0,222,163a5.64,5.64,0,0,0,2.44,2l.35.09.34,0a4.23,4.23,0,0,0,.79-.08,6.57,6.57,0,0,0,1.59-.56,14.07,14.07,0,0,0,2.93-2.07,36.49,36.49,0,0,0,4.93-5.56,28.23,28.23,0,0,1-4.25,6.26,13.73,13.73,0,0,1-3,2.51,5.59,5.59,0,0,1-4.1.93,6.91,6.91,0,0,1-3.46-2.41,21.39,21.39,0,0,1-2.17-3.28,41.12,41.12,0,0,1-2.89-7.13h2a39.76,39.76,0,0,1-2.29,5.86,23.32,23.32,0,0,1-1.61,2.76,8.11,8.11,0,0,1-2.41,2.4,3.37,3.37,0,0,1-1.93.51,3.2,3.2,0,0,1-1.7-.93,12.23,12.23,0,0,1-1.94-2.57A33.18,33.18,0,0,1,203.07,156.18Z" style="fill: rgb(69, 90, 100); transform-origin: 219.22px 158.137px;" id="el7izdupeqqb7" class="animable"></path><path d="M303.21,251.29c2-4.78-40-21.54-53.91-12.37s-3.57,47.24,4.39,47.72c3.25.2,10.78-5.28,14.14-14.34a15.78,15.78,0,0,0-.42-11.55S301.26,256,303.21,251.29Z" style="fill: rgb(38, 50, 56); transform-origin: 272.871px 261.434px;" id="el9sbittcmdys" class="animable"></path><path d="M257.23,270.2a.08.08,0,0,1,.15,0c.36,2.27.81,4.53,1.39,6.75.52,2,1.16,4,2.84,5.38a.1.1,0,0,1-.12.17,10.12,10.12,0,0,1-4-4.85C256.66,275.23,257,272.68,257.23,270.2Z" style="fill: rgb(69, 90, 100); transform-origin: 259.308px 276.333px;" id="elnzty23p8x1f" class="animable"></path><path d="M251.11,274.13c0-.08.14-.09.15,0a53.63,53.63,0,0,0,1.67,6.41c.55,1.79,1.19,4.71,3.34,5.17.36.07.28.26-.1.26-2.28,0-3.56-2.48-4.27-4.32A17,17,0,0,1,251.11,274.13Z" style="fill: rgb(69, 90, 100); transform-origin: 253.745px 280.018px;" id="elrh4pvit5uq" class="animable"></path><path d="M293.1,243.37c-1.29-.45-2.56-1-3.86-1.42a119.8,119.8,0,0,0-19.42-5.48,10,10,0,0,1-.11-1.34,13.8,13.8,0,0,1,.25-2.56,8.58,8.58,0,0,1,2.47-4.69c2.84-2.77,6.84-3.23,10.62-3.19a.06.06,0,0,0,0-.11c-4-.25-8.58-.28-11.74,2.53a8.84,8.84,0,0,0-2.68,5.17,8.73,8.73,0,0,0,0,2.93c.05.32.11.7.2,1.09-2-.36-4.09-.66-6.22-.88-4.75-.49-9.86-.57-13.88,2.41-3.68,2.73-5.33,7.3-6,11.67a63.49,63.49,0,0,0-.52,8.61,31.19,31.19,0,0,0,1,8.6.09.09,0,0,0,.17,0,45.26,45.26,0,0,1,.19-15c.65-4.31,1.85-8.86,5.21-11.88s8.38-3.09,12.79-2.83a69.54,69.54,0,0,1,8,1h0a.2.2,0,0,0,.25.05c6.82,1.22,12.54,3.07,14.54,3.56,1.41.35,2.81.76,4.21,1.15s2.91.7,4.36,1.08A.23.23,0,0,0,293.1,243.37Z" style="fill: rgb(69, 90, 100); transform-origin: 267.733px 245.622px;" id="el4pq4ug7xhtx" class="animable"></path><path d="M265.42,253.63c-.12-.28-.27-.55-.4-.82a28.17,28.17,0,0,0-.34-3.17c0-.1-.16-.07-.14,0,.15.92.24,1.85.31,2.78a41.93,41.93,0,0,0-3.07-5.07c-.06-.1-.19,0-.15.1,1,2.19,1.91,4.41,2.88,6.61a67.39,67.39,0,0,0,3,6.52.08.08,0,0,0,.15-.05A24.27,24.27,0,0,0,265.42,253.63Z" style="fill: rgb(69, 90, 100); transform-origin: 264.642px 253.966px;" id="elhu6bphilx3" class="animable"></path><path d="M210.48,247.44c2-2.25,8.75-8.89,14.28-6.61S240,280.49,234.33,284c-1.49.93-11.16-2.63-16-9.52-2.33-3.33-1.87-6.36-2-12.07,0,0-9.59-2.73-10.42-3.48S207.47,250.89,210.48,247.44Z" style="fill: rgb(38, 50, 56); transform-origin: 220.896px 262.253px;" id="elhsehx58utz" class="animable"></path><path d="M233.46,258.36c-.46-2-1-3.89-1.65-5.79s-1.25-3.78-2-5.6a38.18,38.18,0,0,0-2.51-5.14,5.42,5.42,0,0,0-3.74-2.79,8.07,8.07,0,0,0-4.72,1.09,25.5,25.5,0,0,0-4.22,2.68,6.24,6.24,0,0,0-.19-.7,11.2,11.2,0,0,0-.74-1.75,10.23,10.23,0,0,0-2.26-2.88,7.69,7.69,0,0,0-7.27-1.46c-.15.06,0,.26.09.25a8,8,0,0,1,3.74.52,9.45,9.45,0,0,1,2.78,1.85,13.26,13.26,0,0,1,2,2.48c.31.49.6,1,.89,1.46.11.2.25.45.4.68a27.13,27.13,0,0,0-2.94,2.83,19.8,19.8,0,0,0-5,9.32.08.08,0,0,0,.14.05c.72-1.33,1.38-2.69,2.17-4a29,29,0,0,1,2.56-3.57,25.43,25.43,0,0,1,6.89-5.8,11.51,11.51,0,0,1,4.33-1.63,3.74,3.74,0,0,1,3.6,1.86,35.81,35.81,0,0,1,2.44,4.73c.77,1.63,1.54,3.28,2.2,5,.76,1.94,1.42,3.92,2,5.92s1.05,4.14,1.69,6.17c.05.14.29.16.28,0A32.88,32.88,0,0,0,233.46,258.36Z" style="fill: rgb(69, 90, 100); transform-origin: 219.258px 249.959px;" id="eloj3il2uw9v" class="animable"></path><path d="M217.64,251.71c-.43,1.54-.86,3.12-1.17,4.72a12.06,12.06,0,0,1-.14-2.62.09.09,0,1,0-.18,0,8.82,8.82,0,0,0,.23,3.11,17.21,17.21,0,0,0-.15,5.5.08.08,0,0,0,.16,0c.66-3.53.63-7.16,1.37-10.68C217.78,251.66,217.66,251.64,217.64,251.71Z" style="fill: rgb(69, 90, 100); transform-origin: 216.92px 257.084px;" id="elzg5r8erzszr" class="animable"></path><path d="M226.17,268.8c0-.08-.16,0-.14.05.43,2.25.78,4.53,1,6.82.2,2.08.28,4.16-.83,6a.1.1,0,0,0,.17.12,10.08,10.08,0,0,0,2.06-5.91C228.42,273.34,227.25,271.05,226.17,268.8Z" style="fill: rgb(69, 90, 100); transform-origin: 227.229px 275.3px;" id="elwrh2teun9is" class="animable"></path><path d="M232.55,271a.08.08,0,0,0-.15.05,52.93,52.93,0,0,1,.62,6.59c.09,1.87.49,4.83-1.37,6-.32.2-.18.35.17.22,2.14-.81,2.51-3.54,2.55-5.52A17,17,0,0,0,232.55,271Z" style="fill: rgb(69, 90, 100); transform-origin: 232.92px 277.433px;" id="el1xjh2if0jzq" class="animable"></path><path d="M170.36,144.9c-5.23-.53-10.46-.89-15.7-1.13s-10.48-.41-15.72-.34c-2.62,0-5.24,0-7.87.08s-5.23.19-7.85.34c-5.24.22-10.47.72-15.7,1.18,2.59-.43,5.18-.87,7.79-1.19s5.23-.61,7.85-.81c5.25-.45,10.51-.6,15.78-.66s10.52.18,15.77.59q3.93.31,7.85.76C165.17,144.07,167.78,144.4,170.36,144.9Z" style="fill: rgb(69, 90, 100); transform-origin: 138.94px 143.695px;" id="elanndizmizwd" class="animable"></path><path d="M168.15,147.9c-2.37,0-4.73.1-7.1.2s-4.73.18-7.09.3c-4.72.25-9.44.52-14.15,1-2.36.16-4.71.4-7.06.62l-7,.8-3.53.43-3.51.5c-2.35.27-4.67.73-7,1,4.6-1.12,9.25-2.08,13.94-2.77s9.41-1.25,14.13-1.67,9.47-.65,14.21-.72S163.42,147.56,168.15,147.9Z" style="fill: rgb(69, 90, 100); transform-origin: 139.93px 150.156px;" id="el0d0kogsgy3ah" class="animable"></path><path d="M169.42,150.9c-1.95.28-3.91.55-5.85.88s-3.9.6-5.84.94c-3.88.68-7.76,1.34-11.63,2.11s-7.73,1.53-11.58,2.35-7.7,1.73-11.56,2.56c1.87-.63,3.76-1.22,5.65-1.79s3.81-1.07,5.72-1.56c3.82-1,7.69-1.83,11.57-2.6s7.79-1.38,11.71-1.87S165.47,151,169.42,150.9Z" style="fill: rgb(69, 90, 100); transform-origin: 146.19px 155.32px;" id="elxgceyc4rees" class="animable"></path><path d="M290.42,162c3.25-.23,6.51-.27,9.78-.32s6.52.07,9.78.2c6.52.24,13,.77,19.52,1.49s12.95,1.7,19.35,3c3.21.6,6.4,1.32,9.58,2,1.59.36,3.16.78,4.74,1.21l4.72,1.28c-6.38-1.34-12.75-2.71-19.18-3.74-3.21-.55-6.43-1-9.64-1.51s-6.45-.89-9.69-1.21c-6.45-.8-12.94-1.32-19.44-1.74S296.94,162,290.42,162Z" style="fill: rgb(69, 90, 100); transform-origin: 329.155px 166.264px;" id="elnzisaeiov5" class="animable"></path><path d="M292.73,166c5.87.29,11.72.93,17.56,1.7s11.63,1.78,17.41,2.87,11.51,2.46,17.19,4,11.3,3.3,16.83,5.27c-2.85-.74-5.64-1.64-8.5-2.32L349,176.41l-4.28-1c-2.85-.69-5.72-1.33-8.58-2s-5.73-1.23-8.62-1.76c-5.75-1.18-11.53-2.18-17.32-3.11q-4.35-.72-8.71-1.32C298.56,166.77,295.65,166.4,292.73,166Z" style="fill: rgb(69, 90, 100); transform-origin: 327.225px 172.92px;" id="elon2d8azsg9" class="animable"></path><path d="M290.74,169.55c4.85.75,9.64,1.82,14.4,3s9.47,2.54,14.17,4,9.32,3,13.9,4.79c2.3.85,4.57,1.78,6.85,2.68s4.51,1.93,6.74,2.93c-4.63-1.61-9.22-3.29-13.86-4.84s-9.27-3.12-13.95-4.55-9.35-2.84-14.06-4.18c-2.35-.68-4.71-1.32-7.07-1.94S293.12,170.14,290.74,169.55Z" style="fill: rgb(69, 90, 100); transform-origin: 318.77px 178.25px;" id="el1gemez7wgn5" class="animable"></path><path d="M255.74,83.45c-4.28,1.1,34.91,69.32,53.15,69.57,3.67,0,3.14-32.5,2.79-34.24-.18-.92-11.08-25.22-25.81-31.39C280.83,85.28,258.56,82.73,255.74,83.45Z" style="fill: rgb(38, 50, 56); transform-origin: 283.672px 118.173px;" id="eloohzr5293lb" class="animable"></path><path d="M311.41,139.14a31.42,31.42,0,0,1-1,6.83c-.29,1.12-.56,2.24-.85,3.36-.15.56-.31,1.11-.48,1.67-.09.28-.26,1.27-.61,1.4s-2.47-1.35-3-1.66c-1-.61-1.95-1.22-2.91-1.86a68.46,68.46,0,0,1-5.56-4,104.72,104.72,0,0,1-10.05-9.6q-4.65-5-8.95-10.24a145.32,145.32,0,0,1-9.17-12.33c-.05-.08-.17,0-.12.09,2.46,4.17,5,8.27,7.81,12.2a125.22,125.22,0,0,0,9,11.12,96.54,96.54,0,0,0,10.62,10.3,69.57,69.57,0,0,0,5.88,4.19c1,.65,2.06,1.29,3.12,1.9a12,12,0,0,0,3.18,1.39c1.32-.1,1.54-1.52,1.85-2.54a29.55,29.55,0,0,0,.93-4,45.11,45.11,0,0,0,.36-8.13C311.57,139.06,311.41,139.05,311.41,139.14Z" style="fill: rgb(69, 90, 100); transform-origin: 290.103px 133.289px;" id="el23uhsur61dr" class="animable"></path><path d="M235,235.17a52.4,52.4,0,0,1-5.34-13.42.33.33,0,0,0-.66,0c-.31,1-1.17,3.83-1.29,4.27-.09-.29-.17-.57-.24-.85-.24-1-.44-1.94-.61-2.93a44.55,44.55,0,0,1-.62-6,42.79,42.79,0,0,1,.2-6c.21-2,.61-4,.95-6,0-.08-.11-.13-.14,0a26.65,26.65,0,0,0-1.6,6,39.17,39.17,0,0,0-.55,6,36.94,36.94,0,0,0,.39,6.12c.15,1.05.35,2.09.58,3.12a10.37,10.37,0,0,0,.95,2.93c.33.57,1.05.13,1.12-.42,0-.33,1-4.27,1.17-4.85a37.28,37.28,0,0,0,1.89,5.88,34.64,34.64,0,0,0,3.52,6.36C234.84,235.55,235.09,235.36,235,235.17Z" style="fill: rgb(69, 90, 100); transform-origin: 230.056px 219.803px;" id="eldcfogrwfyng" class="animable"></path><path d="M224.6,81.35s8.47,6.62,12,8.51,14.88,5.37,14.88,5.37,14.23,14.26,22.62,21.12c5.59,4.56,28.22,12.14,28.22,12.14s3.31,8.77,5.73,11.4,7.34,7.13,7.34,7.13,6.42-19.63,5.43-29.05-21.83-36.08-23-37.42C294.36,76.62,255.67,69,245.7,70.7S224.6,81.35,224.6,81.35Z" style="fill: rgb(196, 154, 193); transform-origin: 272.762px 108.738px;" id="el4aaal2nzqvq" class="animable"></path><g id="el2puti5u2rwv"><g style="opacity: 0.2; transform-origin: 270.857px 99.8186px;" class="animable"><path d="M291.18,78a34.28,34.28,0,0,0-8.85-1,29.72,29.72,0,0,0-8.9,1.64,46,46,0,0,0-14.94,8.59c-1.21,1-2.38,2-3.49,3.15A29.06,29.06,0,0,0,251.67,94a.08.08,0,0,0,.11.12c1.13-.82,2.17-1.78,3.26-2.65s2.15-1.71,3.25-2.54a62.17,62.17,0,0,1,7-4.57,51.51,51.51,0,0,1,16-5.69,32.68,32.68,0,0,1,9.87-.37A.17.17,0,0,0,291.18,78Z" id="elnwncd4uklc" class="animable" style="transform-origin: 271.452px 85.568px;"></path><path d="M304.34,90.43a61.34,61.34,0,0,0-6.2-9.1c-.07-.09-.21,0-.15.1a70.4,70.4,0,0,1,5,8.21,50.62,50.62,0,0,1,3.35,8.8,35,35,0,0,1,.06,18.54,87.63,87.63,0,0,1-3.65,10.47.08.08,0,0,0,.14.06c3.25-5.8,6.24-12,6.48-18.74C309.61,102.28,307.49,96,304.34,90.43Z" id="elyc3law9uw9j" class="animable" style="transform-origin: 303.682px 104.415px;"></path><path d="M311.48,106.64a.06.06,0,0,0-.12,0,24.23,24.23,0,0,1-.25,4.58c-.26,1.45-.5,2.91-.79,4.35s-.65,2.8-1,4.19c-.2.75-.41,1.51-.67,2.24-.15.4-.52,1-.25,1.41a.16.16,0,0,0,.16,0c.11,0,.13-.07.15-.2a.1.1,0,0,0-.08-.1c.28-.39.94-1.65,1-1.79a16.47,16.47,0,0,0,.86-2,26.57,26.57,0,0,0,1.1-4.09,17,17,0,0,0,.24-4.21C311.72,109.57,311.7,108.1,311.48,106.64Z" id="el5v1y73pm5s" class="animable" style="transform-origin: 310.086px 115.006px;"></path><path d="M252.73,72.1a32.76,32.76,0,0,0-6.35,1.12,32.31,32.31,0,0,0-6.18,2.22,33.16,33.16,0,0,0-5.54,3.42,44,44,0,0,0-4.79,4.26c-.06.06,0,.17.11.11a50,50,0,0,1,10.88-6.64c1.91-.91,3.87-1.75,5.86-2.47s4-1.15,6.09-1.68C253,72.39,252.92,72.09,252.73,72.1Z" id="el6l7ebis5mci" class="animable" style="transform-origin: 241.382px 77.6736px;"></path><path d="M280,82.71a21.79,21.79,0,0,0-13.51,6.62c-.11.12.06.27.19.2,2.15-1.29,4.34-2.47,6.58-3.61,1.07-.54,2.15-1.1,3.25-1.59s2.35-.94,3.55-1.37A.13.13,0,0,0,280,82.71Z" id="elnk05vlx9no" class="animable" style="transform-origin: 273.298px 86.1287px;"></path></g></g><path d="M286,72.84s-11.26,1-13.58,1.62-2.57,4.65-1.15,5.19,12.27.56,12.27.56S279.76,90,280,91.35s2.19,4.14,3.22,4.29,5.88-.57,6.63-1.23,5.1-7.26,5.1-7.26,5.48,6.25,6.82,7,3.48,1.52,4.2.9,1.12-2.74,1.18-3.54-6.08-11.11-6.08-11.11,10.7-10.45,11.64-11,20.62-2.15,21.2-2.2-4.66-13.07-5.08-14.36S312.05,41.2,310.59,41.65s-16.77,10.68-18.11,12.63S286,72.84,286,72.84Z" style="fill: rgb(55, 71, 79); transform-origin: 302.174px 68.6479px;" id="eld057v80cfcg" class="animable"></path><path d="M333.91,67.23S315,56.82,314.2,55s-3.62-13.31-3.62-13.31c1.47-.44,17.83,9.93,18.25,11.22S334.49,67.18,333.91,67.23Z" style="fill: rgb(69, 90, 100); transform-origin: 322.267px 54.4532px;" id="elwbf612ca6te" class="animable"></path></g><g id="freepik--Bats--inject-7" class="animable animator-active" style="transform-origin: 257.085px 121.835px;"><path d="M423.33,76.82s.39,10.81-4.79,16.58c-.6.67-4.33-3.48-4.33-3.48V92a3.05,3.05,0,0,0-3.15,1.8l-2-1.66s1.8,5.32,1.31,6.43-13-.94-16.92-4.91c-.42-.41-2.56,7.46-8.91,11.33,0,0,6.28-1.38,9.67,2.83,0,0,6.91-5.8,12.57,1.59,0,0,5.53-6.91,13.82-1,0,0-2.07-8.09,7.6-11.47,0,0-2.84-8.57,5.39-12.78,0,0-1.32-7.39,4.28-12A37.73,37.73,0,0,1,423.33,76.82Z" style="fill: rgb(38, 50, 56); transform-origin: 411.205px 90.785px;" id="elq3xjiwdykt" class="animable"></path><path d="M378.92,134s-4.13,4.75-8.62,5.15c-.52,0-.46-3.2-.46-3.2l-.83.88a1.76,1.76,0,0,0-2.05-.49l-.17-1.48s-1.35,3-2,3.25-5.13-5.54-5.24-8.81c0-.34-4.05,2.16-8.29,1.28,0,0,3.22,1.91,3,5,0,0,5.25.27,4.72,5.66,0,0,5.09-.74,6.28,5.05,0,0,2.33-4.26,7.79-1.86,0,0,2.2-4.76,7.36-3.29,0,0,2.38-3.66,6.57-3.38A22,22,0,0,1,378.92,134Z" style="fill: rgb(38, 50, 56); transform-origin: 369.12px 137.779px;" id="elgserptl6unc" class="animable"></path><path d="M100.87,112.09s-.63,6.26-4.06,9.18c-.4.34-2.22-2.34-2.22-2.34l-.17,1.19a1.76,1.76,0,0,0-2,.79l-1-1.11s.61,3.21.25,3.81-7.39-1.56-9.37-4.16c-.21-.27-2.06,4.1-6,5.83,0,0,3.73-.3,5.35,2.39,0,0,4.44-2.8,7.13,1.91,0,0,3.72-3.55,8,.48,0,0-.56-4.82,5.28-6,0,0-1-5.16,4.11-7,0,0-.17-4.36,3.41-6.55A21.86,21.86,0,0,1,100.87,112.09Z" style="fill: rgb(38, 50, 56); transform-origin: 92.94px 120.285px;" id="el40yl9a2un8v" class="animable"></path><path d="M153.76,166.1s-3.3,2.2-6.09,1.7c-.33-.06.25-2,.25-2l-.65.4a1.1,1.1,0,0,0-1.16-.64l.14-.93s-1.32,1.58-1.75,1.64-2.21-4.22-1.73-6.22c0-.21-2.82.64-5.25-.6,0,0,1.64,1.69,1,3.56a3.1,3.1,0,0,1,1.92,4.23,3.57,3.57,0,0,1,3,4.11s2.12-2.2,5,.16a3.9,3.9,0,0,1,5-.77,4.94,4.94,0,0,1,4.56-1A13.8,13.8,0,0,1,153.76,166.1Z" style="fill: rgb(38, 50, 56); transform-origin: 147.76px 165.48px;" id="eldom3vjnd02k" class="animable"></path></g><defs>     <filter id="active" height="200%">         <feMorphology in="SourceAlpha" result="DILATED" operator="dilate" radius="2"></feMorphology>                <feFlood flood-color="#32DFEC" flood-opacity="1" result="PINK"></feFlood>        <feComposite in="PINK" in2="DILATED" operator="in" result="OUTLINE"></feComposite>        <feMerge>            <feMergeNode in="OUTLINE"></feMergeNode>            <feMergeNode in="SourceGraphic"></feMergeNode>        </feMerge>    </filter>    <filter id="hover" height="200%">        <feMorphology in="SourceAlpha" result="DILATED" operator="dilate" radius="2"></feMorphology>                <feFlood flood-color="#ff0000" flood-opacity="0.5" result="PINK"></feFlood>        <feComposite in="PINK" in2="DILATED" operator="in" result="OUTLINE"></feComposite>        <feMerge>            <feMergeNode in="OUTLINE"></feMergeNode>            <feMergeNode in="SourceGraphic"></feMergeNode>        </feMerge>            <feColorMatrix type="matrix" values="0   0   0   0   0                0   1   0   0   0                0   0   0   0   0                0   0   0   1   0 "></feColorMatrix>    </filter></defs></svg>